<mxfile host="app.diagrams.net" modified="2024-07-23T17:40:56.407Z" agent="Mozilla/5.0 (Windows NT 10.0; Win64; x64) AppleWebKit/537.36 (KHTML, like Gecko) Chrome/126.0.0.0 Safari/537.36" version="24.7.1" etag="Rbkew7N_rge49RkeXaEc" type="github">
  <diagram name="Strona-1" id="4A8U12vSrhhQi8iLM4_F">
    <mxGraphModel>
      <root>
        <mxCell id="0" />
        <mxCell id="1" parent="0" />
      </root>
    </mxGraphModel>
  </diagram>
</mxfile>
